<?xml version="1.0" encoding="utf-8"?>
<!-- Generator: Adobe Illustrator 26.0.1, SVG Export Plug-In . SVG Version: 6.00 Build 0)  -->
<!DOCTYPE svg PUBLIC "-//W3C//DTD SVG 1.1//EN" "http://www.w3.org/Graphics/SVG/1.1/DTD/svg11.dtd" [
	<!ENTITY ns_extend "http://ns.adobe.com/Extensibility/1.0/">
	<!ENTITY ns_ai "http://ns.adobe.com/AdobeIllustrator/10.0/">
	<!ENTITY ns_graphs "http://ns.adobe.com/Graphs/1.0/">
	<!ENTITY ns_vars "http://ns.adobe.com/Variables/1.0/">
	<!ENTITY ns_imrep "http://ns.adobe.com/ImageReplacement/1.0/">
	<!ENTITY ns_sfw "http://ns.adobe.com/SaveForWeb/1.0/">
	<!ENTITY ns_custom "http://ns.adobe.com/GenericCustomNamespace/1.0/">
	<!ENTITY ns_adobe_xpath "http://ns.adobe.com/XPath/1.0/">
]>
<svg version="1.1" id="Layer_1" xmlns:x="&ns_extend;" xmlns:i="&ns_ai;" xmlns:graph="&ns_graphs;"
	 xmlns="http://www.w3.org/2000/svg" xmlns:xlink="http://www.w3.org/1999/xlink" x="0px" y="0px" viewBox="0 0 696 349.9"
	 style="enable-background:new 0 0 696 349.9;" xml:space="preserve">
<style type="text/css">
	.st0{fill:#FFFFFF;}
	.st1{fill:url(#SVGID_1_);}
	.st2{fill:#11385B;fill-opacity:0.53;}
	.st3{fill:#1961AD;}
	.st4{fill:url(#SVGID_00000142882415753605636740000001640175537006989954_);}
	.st5{fill:url(#SVGID_00000028313558504418308160000008653497410808278698_);}
	.st6{fill:url(#SVGID_00000056417171580998651770000006782476663416846248_);}
	.st7{fill:url(#SVGID_00000075870453296095159200000004540515088192957869_);}
	.st8{fill:url(#SVGID_00000033338787171225493230000006323675339565302912_);}
	.st9{fill:url(#SVGID_00000117657640399969080340000012740392190884489874_);}
	.st10{fill:url(#SVGID_00000069363415400473892080000000674952289457921213_);}
	.st11{fill:url(#SVGID_00000021842251792824518120000013844373103331715996_);}
	.st12{fill:url(#SVGID_00000091738244573494958880000013261594535797880508_);}
	
		.st13{fill:url(#SVGID_00000017512035981789531490000004816608391518437510_);stroke:#FFFFFF;stroke-width:0.5;stroke-miterlimit:10;}
	.st14{fill:url(#SVGID_00000010276384661928913120000010611380247676773286_);}
	.st15{fill:none;}
	.st16{fill:url(#SVGID_00000049183057756730572530000005161041789910945668_);}
	.st17{fill:#231F20;stroke:#231F20;stroke-width:7.4398;}
	.st18{fill:#10B04B;}
	.st19{fill:#1888C9;}
	.st20{fill:#6360AA;}
	.st21{fill:#CC2036;}
	.st22{fill:#F27024;}
	.st23{fill:#FAB816;}
</style>
<metadata>
	<x:xmpmeta  x:xmptk="Adobe XMP Core 7.1-c000 79.a8731b9, 2021/09/09-00:37:38        " xmlns:x="adobe:ns:meta/">
		<rdf:RDF  xmlns:rdf="http://www.w3.org/1999/02/22-rdf-syntax-ns#">
			
				<rdf:Description  rdf:about="" xmlns:dc="http://purl.org/dc/elements/1.1/" xmlns:stDim="http://ns.adobe.com/xap/1.0/sType/Dimensions#" xmlns:xmp="http://ns.adobe.com/xap/1.0/" xmlns:xmpG="http://ns.adobe.com/xap/1.0/g/" xmlns:xmpGImg="http://ns.adobe.com/xap/1.0/g/img/" xmlns:xmpTPg="http://ns.adobe.com/xap/1.0/t/pg/">
				<xmp:CreatorTool>Adobe Illustrator 26.0 (Windows)</xmp:CreatorTool>
				<xmp:CreateDate>2021-11-04T19:10:08-04:00</xmp:CreateDate>
				<xmp:Thumbnails>
					<rdf:Alt>
						<rdf:li  rdf:parseType="Resource">
							<xmpGImg:width>256</xmpGImg:width>
							<xmpGImg:height>148</xmpGImg:height>
							<xmpGImg:format>JPEG</xmpGImg:format>
							<xmpGImg:image>/9j/4AAQSkZJRgABAgEASABIAAD/7QAsUGhvdG9zaG9wIDMuMAA4QklNA+0AAAAAABAASAAAAAEA
AQBIAAAAAQAB/+4ADkFkb2JlAGTAAAAAAf/bAIQABgQEBAUEBgUFBgkGBQYJCwgGBggLDAoKCwoK
DBAMDAwMDAwQDA4PEA8ODBMTFBQTExwbGxscHx8fHx8fHx8fHwEHBwcNDA0YEBAYGhURFRofHx8f
Hx8fHx8fHx8fHx8fHx8fHx8fHx8fHx8fHx8fHx8fHx8fHx8fHx8fHx8fHx8f/8AAEQgAlAEAAwER
AAIRAQMRAf/EAaIAAAAHAQEBAQEAAAAAAAAAAAQFAwIGAQAHCAkKCwEAAgIDAQEBAQEAAAAAAAAA
AQACAwQFBgcICQoLEAACAQMDAgQCBgcDBAIGAnMBAgMRBAAFIRIxQVEGE2EicYEUMpGhBxWxQiPB
UtHhMxZi8CRygvElQzRTkqKyY3PCNUQnk6OzNhdUZHTD0uIIJoMJChgZhJRFRqS0VtNVKBry4/PE
1OT0ZXWFlaW1xdXl9WZ2hpamtsbW5vY3R1dnd4eXp7fH1+f3OEhYaHiImKi4yNjo+Ck5SVlpeYmZ
qbnJ2en5KjpKWmp6ipqqusra6voRAAICAQIDBQUEBQYECAMDbQEAAhEDBCESMUEFURNhIgZxgZEy
obHwFMHR4SNCFVJicvEzJDRDghaSUyWiY7LCB3PSNeJEgxdUkwgJChgZJjZFGidkdFU38qOzwygp
0+PzhJSktMTU5PRldYWVpbXF1eX1RlZmdoaWprbG1ub2R1dnd4eXp7fH1+f3OEhYaHiImKi4yNjo
+DlJWWl5iZmpucnZ6fkqOkpaanqKmqq6ytrq+v/aAAwDAQACEQMRAD8A9U4q7FXYq7FXYq7FXYq7
FXYq7FXYq7FXYq7FXYq7FXYq7FXYq7FXYqsuJ4beCS4mYJDCjSSueiqoqxPyAxZRiZEAcy+bfOH5
6ea9T1CRdEnOl6WjEQLGqmZ1B2eR2BIJ/lWgHv1zBnnJOz32h9nsGOI8Qcc/s+CYfl7+eXmCHV7e
w8yTi+065dYvrTKqywljRWqoXmtT8XLenQ9jLHnN0WjtP2fxGBlhHDMdOhZh+an5qahouoHQ9DKx
3caq13dsocoXHJURWqteJBJIPXN9o9GJjilyeEJYBpP5u+eLC8WeW+N7FX95bXCqVYexADL9BzNn
osZFVTHiL6B8ta/Z6/olrq1pURXK1MZNSjqeLof9VhTNJlxmEjEswUzytLsVdirsVdirsVdiqUec
NRu9M8qavqFmwS6tLSaaByAwDohZTQ7HcZbggJZIxPIkNWaRjAkcwHhn5afmj+ZvnfVLuxGswacL
WD6wZTaRTcvjVOPEBP5vHM3LDFAXw/a4mKeSZri+x6J9U/Mv/qcLf/uGR/8ANeY/iYv5n2t/h5f5
32O+qfmX/wBThb/9wyP/AJrx8TF/M+1fDy/zvsU7mD8zoraaZPN1u7RRvIEOmxrXgpaleRpWmEZM
X8z7VMMv877Hjelfn5+b2r38Wn6YBeXs5pFBFbxMx7nonQDcntmWcOICyPtcSOfKTQP2PW9Fj/OO
aBZNb8xWenSsAfq1taRXbr4q7fuYwf8AVZhmJLJhHKP2uVGGXrL7Exubb8wihNp5tQSAbLPpsIUn
3ZHJH/AnIjJi6w+0sjjydJfY8y86/mP+e3k91bVDBJYyNxh1G2iikt3alePL01ZG/wAl1B8Myccc
M+Q+1xsk80OZ+xS/Lz83vzN84+Yl0YarBY1hkmNwbWKWgjFacQqda+OHLjxQF8P2oxZckzXF9j07
6p+Zf/U4W/8A3DI/+a8xvExfzPtcnw8v877GmtPzO4nj5vti3YHTYwPv5HHxMX8z7V8PL/O+xi3m
nV/+cgdEtZb20ubPWbOIFpPqcSeuqD9poXiVj78OVMthLBLbhr4tcxmjvd/B35b+bfzN86aBNrH+
IYNPWK7ktBCbGKYkxxxyFuQ4U/vqUpjl8KBrh+1GI5Ji+L7GVfVPzL/6nC3/AO4ZH/zXlXiYv5n2
tvh5f532O+qfmX/1OFv/ANwyP/mvHxMX8z7V8PL/ADvsbFl+ZhIA84W9TsP9xkf/ADXj4mL+Z9q+
Hl/nfY8Rb/nIf80frps4p45pvV9GNUgiLO3LiAqhK1J7ZmeBi/m/a4f5jJ3/AGPWbLz15m0e3RPM
eoG/1sgG40+0S3it7ckVMbzGKRnkX9riKA7VznO0O2MGKXDCNkeb0/ZvYefPHjnLhifJFp5vXzRa
aho7XUtjc6jaXNpb2s/oPbvJPEyR/vViikVuTdDsenXKNN2vjzegjhkeTmz7IyaTJHNfHCEgT8C+
b5I5IpGjkUpIhKujChDA0IIOL6ACCLDcMTzTJDGKvIwRB4ljQYgInIRBJ6PT/wA4YdLh863sdqLh
rwlJL2WZ0MfKSNWVYkVAwVUI3LH8N+y0JkcYvk+Oy5sHzMQ9a0HzQnk/ybpEdxfTpdXQmvP0XbRw
l3jmYei8ksyyCNOKEjipJ5e2a86U58hoChtZcHWa+GCgSb7grp+b02qg20N/PoN6/wANtczrbXdp
y3oJ6QxSICaDktadSMM+yzAXQn8wfvcPH2zGZo3Dz2I+LzzzB+en5vaBrN1pGpywxXlo/CQCGEqR
1V0Pp7qykMp8MpjhxEWI/a5cs2UGifsel/kJ+Znmfzm+rrrciSC0EJgKIqEcuXL7AWtdso1eGEYg
xFWT+hv0uaUiQTfL9L17MFzXYq7FXYqx78w/+UD8wf8AbPuf+TTZkaX+9j/WH3tOp/u5f1S+dv8A
nGhP+dn1f/mA/wCZ8eZWsHpHvcLRH1H3PQvzg/MrWvI66ONLs7O5OofWTMbxJXI9H0uPH05Yv9+G
ta5j6fAJ3bk6nOcdU85/6GW86/8AVq0j/kVdf9lOZP5KPeXF/PS8lOf/AJyQ86zwSwfozSVEyNGW
WK55AOCppW4Irv4YRo495U62R7nrv5U/l3b+UPL0SPEDr1+ivqc5ALqW3W2U9lj/AGvFqnwphZ8v
GfJzdPi4I+bCvP8A/wA5AR6ZqEumeVbeC9a3JSfU7jk8RcbEQIjJyCn9tjQ9hTc34tJYuTj5dZRq
LG9H/wCcjvNkF0v6WsbO/syf3ixo1vMB/kOpZf8AgkOWy0cejVHWyHN7npWoeW/OXlkXMCrf6LqS
GO4tplowIPxxSqCeMiHuD4Mp6HMCUZQl5uwjKOSPk8l8heSX8ofnjPpILSWTWM9xp8z/AGnt5R8F
ad1IKN7qczMuTjxW4eLHwZaZ/wDmx531PyX5btdS022trm4uLxbZ1u1kZAhid6gRyRGtUHfMfT4h
M0XI1GUwFh5OP+clfOlRy0nSSvcCK6Bp8/rJzL/JR7y4f56XcHsP5befbXzpobajFAbO+tJBDe2w
bmFcjkjo2x4OK0ruCCN+uYWfDwGnNwZhkFsA/MDz3q35Z+ZrrS9CsNPk0/WiNbKXEcxMc1wBbzKv
pTRDiz2vOlNq+GZOLEMsbN7bOPmzHFKhW+6/8tvzs8zeafOdhoV/p+nQ2t2twZJLdLhZQYbaSZeJ
eeRftRitV6YM2ljGJItcOqlOQBpnH5o+b9R8oeVv0tp9vb3FybmKDhdCRo+Lq5JpG8Rr8PjlGDGJ
youRqMphGw8hH/OSnnUEEaVpNR0/d3f/AGU5mfko95cL87LuDG/yeWC6/NXRJLpVPK5kmRT9n11i
eSLqR/u0LTfJ6mxjNdzDTEHIL72fyO8kjSSMWkclnZjUkncknPJpEk2eb7PGIAAHJpWZWDKSrKag
jYgjADSSL2LH/wAxrEfpWHWolAh1lDNKB0W7QhblfmzUl+TjOsw5vFgJ9/P39WPZsuGJxHnjO39U
/T+r4IP8vbJrzzzoMCryBvoHdf8AIjcSP0/yVOX4xcgz7UycGmyH+ift2Z7+elklv53Ey9by0imf
/WUtF+qMZ1nZ8rx13F8plzYZoOmx6jqsFtMxjtRylu5R1S3iUyTMPcRqae+ZmSRA259PewnIRBJ5
BdrGpSanqdxfSKE9dyUiH2Y0GyRr/kogCj2GZ+HGIRER0eGz5jkmZnqg8taVD83OM0HlO5m/46Em
k8JxShMMNzLHbsfmi0r7ZoZRAyTA5cX6N3psUicUCefD+nZ6B/zieKTeYP8AVg/W2Yuu+iPvP6HN
0J9UvcP0vojNY7N2KuxV2Kse/MP/AJQPzB/2z7n/AJNNmRpf72P9Yfe06n+7l/VL58/5xoX/AJ2n
Vv8AmA/5nJmZrh6R73X6A+o+563+YP5YaT53Gn/X7u4tTp/rCP0Ah5etwrXmD09PMLDnOO6HNzs+
nGSrPJh//QsnlX/q733/AAMP/NOX/npdzR+Qj3lAaj+Rnl7y3qXl7UIL65uxJrNlbzQXCx8GjZy7
D4QOvp0yUdUZgiuhYS0ogQb6h6X+ZOpXOl+Q9ev7clbhLR0jcEgq05EPMEd19SozFwRuYDmaiXDA
l8ccc3dOht3HGlt7l/zjJqVx6+u6QxZrYpFeRj9lJFYxPT3cMv8AwOYGujsC7Hs+e5D0/WbWFfzI
8r3AUetJZarE79ykYt2UfQZG+/MSB/dy94cyf95H3FLfzk8ka15t8s2en6OImuYL1biQTOIxwETp
sT7sMlpsohIksNVilOIAePR/845/mIzhWFlGD1drioH/AAKsfwzN/OQcH8lk8ntn5XflyvkvQpLF
51u9RvZRNeTRgiOqrxSOPlRiq77kCtemYGozcZ8nYafB4Y83gv55eZLPX/PkzWTrLaabClhFOhqs
hjZnkYEdR6krAHuBXNlpcZjDfq6zV5RKe3Rb+RK/8hU0b/VvP+oKfHVj92fx1XRn94Px0eu/85Ep
T8vl/wCY+D/iEmYWi+v4Odrj6Pi+ZOObWnUWzz8u/wAuPNGqSW3mK2uY9GsrWdZLTUrgMxeWFgf3
EShmk4NSp+z75re0e08GljeWVW52i0WXMbgHsnmLy3aXsv13Sp43vJhyurEK0YaX9toOe1HO4jLV
7CvTPOtRl02fITgn6j/Cdvle3wfSOz9bkxQEM42H8XP5/rYfJG8btHIpSRCVdGFCCNiCDmCQQaLv
gQRY5LNRsv0p5evtPpyuLcG/svHnCp9ZB4c4an3ZFGbfsrNucZ67j3/2NEz4eWOTp9MvceR+B+8o
X8ibFrn8xrKUCq2cU8718DEYh/w0ozf4B6mr2iycOkI/nED7b/Qzv/nIWzUTaJeAfE6zwu3spRkH
/DNnR9mS+oPnEnnVqPqHluefpc6u/wBXi8RbQMryt/z0l4KD/kuM22GPFk8o/efx9zpO2dRw4xAc
5fclObB5dk2heWNOWSC780Xv6L0+QCSODiz3U6HccY0DGNGHR3oD2rmn1/a+PD6Qbn9zmYsEI0c0
uCPd1Pw6e8pR+Yfk/VPMF9eeYNEvbbVrK1jCrptsskNxaWcChUUQShWdEX7TITvUnNbpdbjnte7u
Rlhl3xkEDpyIHuLLP+cUxSfzB/q2/wCt8s7Q+iPvP6HM7PPql7h+l9DZqnauxV2KuxVj35h/8oH5
g/7Z9z/yabMjS/3sf6w+9p1P93L+qXgX/OMy/wDO16p/zA/8zkzO149I97rOzj6z7mafnx5681eV
G0NdBvRZi8FybmsME3L0zFw/vkkpTmemUaPDGd8QcnXZ5464TVvKP+V6fmp/1el/6Q7L/qjmb+Tx
933uB+ey9/3KUn5w+er6902TWL8Xtpp19b3624gt4eT278l+KKONulR1w/lYAGhzCDrJkizdG31F
qNhp3mby1cWscofT9Zs2WK4UV/d3EdUkUGnTkGGaaJMJeYLvJATh5EPjbzF5c1Xy9rFxpOqQmG7t
mKkGvFl/ZdD+0rDcHN9CQkLDzuSJgaKW8cnTC301/wA4/wDkW90Ly/datqMRhvdYMZhgcUdLaKpQ
kHcGRnJp4Bc1GtyiUqHR3WgwmMeI9UzvNegvfzs0vRIWDfojTbtrgjtNdBGKfRHGh+nIDHWEnvLM
5LziPcCmP5mfmAnkfS7S/bTjqP1ucwemJvQ40Qvyr6ctenhkNPg8QkXTPU6jwgDVpV+W/wCculec
9Sm0uSxOlX6p6lrE04nE6rX1Ap9OGjKN+NDUVPbLM+kOMXdhr02tGQ1VFR/PpPOUXlL61oN08Omx
ho9bghAErQvQK4enPgPsuFPQ77Vx0fBxVLn0RruMQuPLq+XOObmnSWz78iV/5Cpovyu/+oKbMXWD
92fx1crRH96Pj9z1/wD5yMSn5fx/8x0P/EJMwdD9fwdh2h/d/F802Nmbu9t7UEKZ5EiDHoObBa/j
m3Owt00dzT6k1COG3uDY26CK008fU7WEdEig/dqB91T754X2/qp5tXPiP0mg+n9nYYwwxAQ2aZzm
r21stSjCXykSqKR3qAGVfAOCR6ijwJqOxA2zcabtOwI5tx0l/EPf/OH29x6Mccp4jePl/N6fDuP2
Mbu9N1LQ7uC6+F0Vw9tdp8UTlTyA3A38VYA+IzaAHGRkibj0kOX48i7LHnx6iBjyNbg8x+O9OvyY
8tx2HnnX7u2BFgLWM2Vd/wBzeSeoq17mMwGNj/MpzsNJISHEORDpu3tSZafHGX1cRv3x2+27+LJf
zu0q51HyxYpaxGW5GoQogHX98rxgfS7KM3egmIzN9zyMnjt5a3Gs6uLDSENzbWMQt7Vl+FPQh+1O
5biEWRy0jFjQFs6HHKOHHxTNXufx9jxernLU5jw7jp7h1/SiVl0jQTSyKanq6n4r515WsDD/AJZ0
YfvWB/3Y44/yr0bOZ7R7dlO449o97jTzww7Q9U+/oPd3+87dw6pPcXE9zO89xI008pLSSyEszMep
LHcnOcJJ5uunMyNk2Sq6ZqN3pt/Bf2chiubZxJG48R2PiCNiO4wxkQbDLDlljmJR5h6r+U2mWem/
mJ54t7JBFas1rcRRDoguYzPwAHTj6lKds6jPPiwQPv8A0PeaSvFlXcPt3etZgOydirsVdirHvzD/
AOUD8wf9s+5/5NNmRpf72P8AWH3tOp/u5f1S8F/5xt5p5o1VkUuwseiip/vk8M2HaP0D3up7LPrP
uTP/AJyaZ5H8tl1KMFvNmFD1g8ch2aPq+DZ2qd4/H9Dw7hmzp1HE7hjS8T1/8n/zkj8v2yeX/MDN
+iVJNlegFzbljUo6irNGSajiKqfEdMDV6Pj9UebstHrhD0y5PZ9UsPKfm/To3vbS11ux3EFzGRKF
rTkI5ojyQ+IDDNZGU8Z2sF28oY8o3qQS7RPy5/L/AEm7W803y/Etyh5JLKZrngV35L67yqpHiMlP
U5JCiWENLjibASrz/wDndonl+0lttKmi1PXGBVI4iJIIW/mlkX4SR/Ipr40y7T6KUzZ2i0anXxgK
jvJ5f+RV5eXf5nvfXLtcXlxb3Us0jfEzyPRmY+5JzN1sQMVBwOz5mWaz5s2/5yTeSTyvpPqIyH68
1AwI/wB0nxzF7O+o+5y+1D6B73gWm317pt/b6hYytBeWrrLBMvVXU1BzbSgCKLpo5DE2Ob628k+d
bTzn5YS8WBJZHU2+q2AXmqSFaOrKa1jkBqteo26g5oM+E4pV8npNPnGWF/N87fmt+Xk3lDX6Qo/6
Gv8AlLpsjg1UA/HC1f2oyfpWhzb6XP4kfMc3SazAcUv6J5K35Ggr+aOjMoqQt2QBuSfqU2DWj90f
h96dAf30fj9xetf85CvNJ5AT1I2QC+goWUj9iTxzX6D+8+Dsu0j+7+L5rTkjB1PFlIKkdQRm6p0X
E+j/AC55q07zjZRXlpKg1sov6T0uoWX1lFHlhTbmjkcvhqRXfPKvab2ZzDMc2IcUZcw992N2zjnj
EJmpBN/0Pq//ACw3H/Ip/wCmch/Jup/1LJ/pZfqd9+Zxfzo/MO/Q+r/8sNx/yKf+mP8AJup/1LJ/
pZfqX8zi/nR+YVItO1mNXjOnzSQygCaCSF2jcDcclp27Ebjscy9Ji1uA+nHOjzBhKj7xX7WueXFL
fjAI5EEWyjyTp0dhb3ESQTW4dgyRTxsCi7ngspA5IGYlQdxU9eudz2PkuBBhOHlIHb3Gtx9rqO08
pySBJB8wefnXQovzkA/ly8i4TuZVCKLSBrifc7mNF6NSvFiQFO+bvHl8OQlV10dFrJViPPf+aLLw
7UdN83S2v6O03y7fafpO3K2S3nZ5ipqHuJeAMrV6dFX9lRmFrNVmzyuV08bnhqJDhjjnGHdwnf8A
rGt/uSn/AAf5t/6sl/8A9Is3/NOYPhS7i4f5HP8A6nP/AEpd/g/zb/1ZL/8A6RZv+acfCl3FfyOf
/U5/6Uq0Plx9NH6R80pJpOkwHlKs6mO4n47+jbxNxd3fpWnFepOZOm0U8sqrZydN2bMyvKDCA53s
T5AMu/5x/wBcuNe8z+b9YnUJJevDL6Q3CKS4RB7IoCjOk12MQxQiOl/oeo7PyceSR73tuap27sVd
irsVY9+Yf/KB+YP+2fc/8mmzI0v97H+sPvadT/dy/ql5N5I/IzyF5l8qabrYvNTWS7hBnRJbcKsy
EpKqgwMaCRTSp6Zm59bkhMxofj4us0/Z+PJASuW/u/Uxb84vym0vyXZ6bfaTLdT2lzJJBctdNG5W
QKGjCmNIvtKH6+GX6PVHKSJU42u0YxAGN0WL/lp5NTzd5utdHmaSOzKyTXksNOaRRrWoLBgKuVXc
d8yNTm8OBl1cfSYfFyCJ5PbG/wCcaPIxUhb7VAxHwky25APao9AfrzV/ylk7h+Pi7f8AkrH3y+z9
T5y1CxnsL+5sbleFzaSvBOng8bFWH3jNzEgiw6GQMSQej3P8sfyT0zUPK2n67d6jqdhqN8rSgWMy
QBY+Z9I7xu26gNWvfNXqdaRMxABA73caTQCUBImQJ7ko/O7ynp/ljSdPRNc1jUL2+lcLBqF2J4hD
EtZDxCIa8nSm/jlmiymZO0QB3Bq7QwjHEeqRJ7ynnkj/AJx/8t6h5V07UNca7XUryITyRxSKiqkh
5RrxKMa8COXvlWfXyEyI1QbtP2bCUAZXZSf82PyV0Ty15YGtaGblxbTIt8k8iuBDJ8IdaKtCJCo+
n2yzSayU5cMmrW6GOOHFG/NOvLP5Fflr5i0Gz1mwv9UNvdxh+PrW9UcbPG3+j9UYFTleXXZYSMSB
t+O9uw9n4skRIGW/u/Uxb83PyYsvKWk2+saJLc3NiH9K/FyyO0ZenpODGkY4k/Ca96eOX6TWHIeG
XNxtboRiiJRsjq8/8oeWLzzN5istFs9pLp6SS0qI4l+KSQ9PsqCffpmXmyCETIuDgxHJMRHV77/0
LR5E/wCW3VP+R1v/ANk+an+UsncPx8Xd/wAlY++X2fqY7oP5MflzrXmbX9Is73U3h0IW0Uswmt/i
uJjN6qj9x0j9NV6fa5e2XZNZkjCMiB6r/HNox6HFOcogy9Nd3n5Jlr3/ADjVoC6RctoV5etqqJyt
UupIWhdhvwbhFGRyGwPLY5DH2jLi9QFNmTsqPCeEnifPtzbTW1xLbXEbQ3ELNHLE4KsrqaMrA7gg
5twQdw6Mgg0Xtv5b/kf5T8y+TNN12+u9QivLv1jItvLCsY9K4kiXiGhduiD9rrms1OtnCZiAKdvp
dBDJjEiTZ/X7kdrX5VadpnnHyroNtresiy1r6/8AWS10vNPqkCyx+kVjVRVj8VVP0ZCGqMoSkRG4
1072eTRiOSERKVSvr3Bk3/KiNC/6v+v/APSZH/1Ryj89L+bH5OR/J0f50/n+x3/KiNC/6v8Ar/8A
0mR/9Ucfz0v5sfkv8nR/nT+f7Hf8qI0L/q/6/wD9Jkf/AFRx/PS/mx+S/wAnR/nT+f7Eu0/8k7C7
W4f/ABFrSCK4mhUfWVPwxSFAT8HWgyctaR/DFhDQA/xS597zafyX5wvfzD1HypoGpXk0Vi49S7ub
hwscZVTzlZad22CipzOGaAxicgN3XnBkOUwgTs9T0v8AIiyhgX9J+YtXvLmnxtDP9Xi+hCJW/wCH
zXz1xPKMQ7KHZwA9UpFUvvyK0qWJvqfmDWbWalEZrkTID4lOKMf+DGMdcesYpl2eDylIfF45+Yv5
Sea/KofUbqT9KaWWCtqUfKqFjRfWRizJyPepWu1anNlp9VDJsNj3Op1WjyY9zuO9m/8Azi7T6z5g
/wBS2/XJlHaf0R95/Q5XZP1Se/ZpneOxV2KuxVj35h/8oH5g/wC2fc/8mmzI0v8Aex/rD72nU/3c
v6peU/8AOM/mjlpmraBK45W0i3tsp6mOWkctPZWVP+CzK7RhuJOv7LybGPxZz+cGkrr35e6rbqoa
4tI/r1ttUhrb42p7tFzUfPMbSZOHIHM1uPjxEd27BP8AnGfRRb6fqvmGVRzuZFsrViNwkQEktPZm
ZP8Agcyu0clkRcPsvFQMvg9u+ujNY7Z8y/nR5QuD+aMEVktB5lMD2+1FE8jCCQV/115n/WzdaPN+
63/hdBrtP++2/ifSVgtrp9jbWFqvC2tIkggTwSNQij7hmmlKzZd7GIiAB0eE+cIj5+/PSDRP7zS9
HCxXhFePpW/725r4FpG9GvjTNril4WC+pdPmj42o4eg/B/U9+S55EIgHgBmpd0hNWt7PVdMu9LvR
ytb2J4JwOvGRSpI9xWoyUJGJBHRjOAkCD1eDfk15qvPJvnW/8jazJxt7m5aGEn7KXinijLX9mdQB
8+Pvm11eMZICY/AdNoshxZDjly/T+17zq9tYatpl1pl/GJbO8jaGdO/FhSo8COoPY5qoSMTYdzOA
kCDyLA/yi/LQ+SRqN1fsk2p3UrwW8q0oLON/gPehmIDkV2HHvXMrV6nxKA5fpcLRaTwrJ5/oTP8A
Nn8xF8p+VJZoHA1a/wCVvpq7VD0+Oah7RKa/63Ed8hpcPiS8g2azP4cNvqPJ5/8A84wXLU80SOxZ
max5MdySfrJJJOZfaX8Px/Q4fZX8Xw/S90+ujNW7d4r+fH5bLqMEvm3Rov8ATrdK6tbIP72JR/fq
B+2g+34rv232Wh1Neg8ujqu0NJfrjz6sw/I+5CflZoQ8RdH/AKfJsx9b/en4fc5Og/uY/H7y35tn
Dfmj+Xz+H6a/CyQ44v7qf+b965v77H/nfczpLsM6r4kD78xXMeG/9DL61/1Kbf8AI9/+qObP+T4/
znU/ylL+b+Pk7/oZfWhufKjf8j3/AOqOP8nx/nL/AClL+b+Pkyj8t/Mer3mn3fnDVtRitNA1IzTW
umMVCWpE7rIzzsqVqUJ38co1EQCIAeode9yNLORBySNRPTuTD8rNU0zVE8xeYrNf+OpqsoEpFGaG
3jjSL6N2b6cjqQY8MT0DLSES4pDrJPfOfmTXtI0KS+0LSW1q+R1BtENGEZBLScVBd6UA4rvvlWGE
ZSqRoN2ecoxuI4i880X/AJyRsxfCx806NNo8leLzpykCmvWSJlSRQPbkfbMuegNXE24UO0RdTFMK
/PT81IfMV5HoWjXAl0W0IknuIz8NxORUU8UjrQeLVPYHMnRafgHEfqcXX6njPDH6Qn//ADi0a3Hm
D/Ut/wBb4O0voj7z+hn2UPVJ9AZp3dOxV2KuxVj35h/8oH5g/wC2fc/8mmzI0v8Aex/rD72nU/3c
v6pfKX5Q+ZP0H5/0yZ34Wt45sbo1oOFz8ALHwSTi/wBGbTUw4oEOl0kuDIC+pPrgVykoDKDxkQ7g
jowOaN6BL9C0qx8s6Pa6FYvztrFWUSHq7O5kdj/snOWZchnIkteLGIREQutPNdhe6rqmjwV+uaIb
cXZqKN9aj9QU/wBQji3vjLGREHvWOQGRj3LdQ0nTdU1DStVuSPrWgyyz2oIqGE8RiI/2L+m4P+Tj
DIYgjvRPEJSB/mq+oa/Bpem3mqXFDBp8Ely61py9JSwT5u1FHzyMI8RA72U58MSe551+Rmlzw6Pf
+a9QPPUvMM7lJW+0YI5CZHr1/ez8q/6gzM1uTcRHIOFoMexmecmS/mdqHmNfJF5HoFld3t/futmv
1KKSZ442+KZyI1agKLw/2WU6UR47lyDfqzLgqINlPdH1fUbzQ9Ov9RtZbG9uoFe6tp42hdJl+CUc
HAYDmpK17EZVkiBIgcm3FImIJ5vF/wDnITQTFqVh5qtRxW8AtL112pcQLWJyfF4hQf6mbHQ5bBie
jrO0MNSEh1ekfln5+/xV5WiupnB1Wy42+qL3L0/dzUHaVRX/AFg2Yepw8EvIudpc3HHfmGVHUEVW
klkWKGNWkllc0VI0BZnYnoFUVOUAW5BNPlb8zPPMvm7zRPfKWXToP3GmQttxgUmjEfzSH4m+dOgG
bzT4vDjXV5/U5TknfTo9E/5xsn9O08zN/wAWaePwusxO0D9Px/Q5vZo+r4fpet6v5o0/RNIutV1H
l9TtvREroKlBNcRwc6dwnq8iB2zAxwMjQdjkyCEbKLXUAOMkciyRuoeORCGR0YVVlI2ZWU1B7jIk
UyBtD6fDpelWEFhpcXoWcXqusA+yjTTPM6r/AJIaQ8R2G2GczI2WMICIocmOeY7jl+YfkJ/D9O/h
YIcvxf3c/h97Rl/vYf533MrS9csAlS5ICgda9qZjOUifV1T/AH3P/wAC+KtiXUd/USYJQ8iwYClO
9cIQXxE1zM8aRu7NHHX00JJVeRqeI7VOdFbzFPTfya/NSz8rtcaPrDMmkXknrR3KqX9CegVmZVqx
R1UVpUig265h6vTme45udo9QMex5F9A6drVnqdsLvTLmK+ttv31s6yqK9m4E8T7HfNVKBjsQ7iMx
IWDbWofUdStza6lbQ31uf903MazJXxo4ahxjIx3BpZQEhRFvFvzZ/KfSbHS5/MXluM28VsQ2oabV
nQIzBfVhLVYBWb4lJO24oBTNlpdWZHhk6vV6IRHFFNv+cVWrP5g/1Lf9b5LtE+iPvP6Edmj1S9wf
Qmal27sVdirsVY9+Yf8AygfmD/tn3P8AyabMjS/3sf6w+9p1P93L+qXwwJCCCDQjcEZuLdHwvrDR
PMf6Z8v6XrPPk+oWqSTsBQeutY7gf8jkbNHlhwyId9inxRBRo1S3t45bu6J+qWcUl1ckf76gQyP/
AMKtBkIizTOUqFvCPys86XR/M5rq/lp/iWSa3uz+z610/OEgdqThB7CubXUYwcdDo6jTZCMlnq92
N4QSDsRsRmpdwxP8z7q8vdB0/wAs2B/0/wA0X8dolegggKySs3gBI0ZJ8AcytKACZH+FxNWSQIj+
IsqiezsreCwsRxsbKJLa1B6+nEoRSfdqVPvmPKRJsuTGIiKClc+YNFtbiS2utY023uYWKTQS39pH
IjqaMro0oZWB6gjCMcj0KDliOoXWmtaZeu6WOpWN7LGhkeK1vLaeQICAW4RSO1BXc0wGEhzCxyRP
IhBeZtKj8zeXNQ0I0M15HWyJoKXUXxwbnpyYcD7McnhycEgWOfHxwIeZf84/yPDd+YQwKssEAZTs
QRKRuMzdcdg4OgFSL0zzTdc/KPmBa/8ASsvP+TDZhYfrHvc7P9B9z5W55u7dFwvZ/wDnHufhpnmV
v+LtOH/CXea/XHl8XY6AfV8P0sv/ADPufU/LbzEK9IbY/wDT/bZj6X+8H46ORq/7s/jqw/8AJb8x
uaReUNVloxJGiXLnoxNfqrE9mO8f+V8PcUydXhv1D4uNo89ek/B6sbwgkHYjYg5rnZJHrFxy87eR
3r0/xB+GmxnMjH/dz+H3uNl/vIfH7mRWepJFdwSuTwjkRmp1oGBOY7kvH/8AlQdj/wBTMf8ApB/7
OM2P5/ydb/J/n9jv+VB2P/UzH/pB/wCzjH8/5L/J/n9jzfzn5dPlnzNe6GbgXZsyg+sBPT5CSNZB
8NWp9unXMvHk4oguFlxcMiHpn5Uflrp66evmHzNaJdC9jP6L02avAwuKG5lUUPxDaLf/ACv5TmJq
dSQeGLm6XSgjikitV/JezW8N95U1x9ImqWjtrr1KRk70S5gDSU8OUdfc5GGt2qQZT0O9xNMx8nWn
m7SNPubbzNr0OuSM0f1FozLK8QHL1C880cTtyqtFPL6Mx884S+kU5GCE4/UbVvOWpwweSPMU87cY
f0fNDXxkuB6MS/S7jBgFzDLUGoH3MZ/5xQNZ/MH+rB+tsztefRH3n9Dg9nj1S9w/S+h81btHYq7F
XYqx78w/+UD8wf8AbPuf+TTZkaX+9j/WH3tOp/u5f1S+EPUzZ26nheo/lr+Z2h6L5bl0bW3uE9G5
aexlhjEw4TKBJGQXj40ZAw/1jmJqMBmbDmafMICijfPP5seXL/yne6VoslzJeag0UUrzQrCq26v6
r0IkclmZEHTpXI4dOYysss2cSjQeSRXEkUqSxsUkjYMjjYhgagjM23Bp72v51eQ7uNLq8nvra8mR
Xu4IrRHjSZlBlCMZ1qvOvHbpmuOllezshqo1uk3/ACtzyafPB1i4W+ew0/TfqGjPFbxNIJZyWuZ3
jeeMKxEjxijHb5Zb4EuDhDV48ePiKZr+ePkW2JuII9TuLiIF4IJrW3jjeRRVFkdbqQheVOVFO2VD
SS7w2nVx7i8Mur64u7qa6uZDLcXDtLNK3VnclmY+5JzYjZ1xFpt5L8zv5c8z6frAVpIraSlzEtKy
QSAxzIK7VaNmA98hkjxRIZYzwyBeuj87PICuGRtXUg1U/U7aop0/4/Mwfyku8Of+bj3FIdJ/M7yN
p/nHzJqsUWoRabrYikiVLeAypPy5z8ozcKgVpCzLR9q0pl08MpQA2sNMMsYzJ6FMda/OPyRc6Fql
najU3ub2zntoRLa28cYeaMoCzLdSEAV7Kchj00hIHZsyamJiRu8U9TM63X8L0L8rPP8A5e8sWesW
2ri7/wBPktJIHs4opqfV1nVg4kmgpX1xSlcx9RiM6pydPkELvqnvnH82PJ+q+UdW0nTxqLXl/HDH
Ebi2giiX07qGdizJczN9mIgfD1yrDp5RkCabc2ojKJAt5CspVgykhgagjYgjM23B4Xs+h/njoUuk
248xrfDWIl9O4ubSGGdLgKAFlf1J4CshGz7EE/F3pmDk0pJ9PJz8eqAHq5rb/wDOHydL5i8uX0Ka
i1ppX6V+uM9vAkv+5CzS3j9JBcOrcWSrcnXbDHTyESNt6RLURMgd9rTH/ldP5f8A82r/APSHbf8A
ZZlf5SXeGz83HuLv+V0/l/8Azav/ANIdt/2WY/lJd4X83HuLv+V0/l//ADav/wBIdt/2WY/lJd4X
83HuLyv8w/Mth5j846jrNgsqWl0YvSWdVWSkcKRnkqNIo3TsxzNxRMYgFwcpEpEhOPJn5v635ftY
9MvIl1bRo/7q2lcpNCD1EE4DFB/ksrL7VyGXBGe/ItmLPKG3MPQ7L84Py/u1Bku7vTn/AGkubf1F
BpXZ4GkLD34D5ZiHSyDlx1UTzVbj82Py8t05/pSe8P8Avq1tZOR9qzmBRgGlmk6mDzH8wPzQvfNK
x2FtAdP0S3f1I7Tn6jyyAECWd6KGahPEAAL95ObhwiHvcLNlM/c9Q/5xMas3mD/Vg/W2Q1v0R95/
Q2aIeqXuH6X0Xmtdi7FXYq7FXjHnz8+fKUUuueU7/TNQYr6+n3FxB6NNwY2ZOT/SKjM3BgmCJj3u
Fm1MKMD7nh3pfk//AL517/p1/wCa8zLn/Nj9rh8WPvP2O9L8n/8AfOvf9Ov/ADXjc/5sftXix95+
x3pfk/8A7517/p1/5rxuf82P2rxY+8/Y70vyf/3zr3/Tr/zXjc/5sftXix95+x3pfk//AL517/p1
/wCa8bn/ADY/avFj7z9jvS/J/wD3zr3/AE6/8143P+bH7V4sfefsd6X5P/7517/p1/5rxuf82P2r
xY+8/Y70vyf/AN869/06/wDNeNz/AJsftXix95+x3pfk/wD7517/AKdf+a8bn/Nj9q8WPvP2O9L8
n/8AfOvf9Ov/ADXjc/5sftXix95+x3pfk/8A7517/p1/5rxuf82P2rxY+8/Y70vyf/3zr3/Tr/zX
jc/5sftXix95+x3pfk//AL517/p1/wCa8bn/ADY/avFj7z9jvS/J/wD3zr3/AE6/8143P+bH7V4s
fefsd6X5P/7517/p1/5rxuf82P2rxY+8/Y70vyf/AN869/06/wDNeNz/AJsftXix95+x3pfk/wD7
517/AKdf+a8bn/Nj9q8WPvP2O9L8n/8AfOvf9Ov/ADXjc/5sftXix95+x3pfk/8A7517/p1/5rxu
f82P2rxY+8/Y70vyf/3zr3/Tr/zXjc/5sftXix95+x3pfk//AL517/p1/wCa8bn/ADY/avFj7z9j
vS/J/wD3zr3/AE6/8143P+bH7V4sfefsd6X5P/7517/p1/5rxuf82P2rxY+8/Y70vyf/AN869/06
/wDNeNz/AJsftXix95+x3pfk/wD7517/AKdf+a8bn/Nj9q8WPvP2O9L8n/8AfOvf9Ov/ADXjc/5s
ftXix95+xnH5YfmV+XXki6uU0yy1ic6kY429cW1FKkgEcXr+1lWfHOYAoCve24c2OBJsm/c+oM1b
tHYq7FXYq8b8gaeW/NDz66RxvOzSmD1VDLz9ZuNfavXNrqYVhxnvdJo8nFqMse79aX/mJa/mhH5V
uYdbh0VdPu3it5GtEcTAs4K8Sdhuu+WaWOGU/TxX5tWtyaiGO5iHCdtlfzX5hj/K39H+W/K2l2jO
bZZ7++uomZ5yzMm/FkJLema7kDoOmOl0p1IM5E811uvGkIxwAurJKX+cfJvl/wA3WvlHzLa2aaVP
r95HZanHCFUEuxDSBaAFl9NqNTeorhxcWOU4HfgFozGOWOPIPT4kqP4+CO82fmPP5G18+WPLOjWU
Gk6esSXEckb8pi8Yc/ErL+y/2mDEnffDpuz/ABoccibLHWdrfl8nhwiKigfJM1rrOjfmfqa6db2K
3dgGhtIUUJF/o90Ph2HxHqxAFTvh1OnOOWKN3v8ApC6PVjLDNOqqP6JJL+UulRjyr5+LxBv9xLhW
Kg0JhnpQnocs1uLhnjHfL9TT2dqOLHlPdD9BZ75AST/AOl23kebS01SNSdZtL5WLyuftczGeYqeh
IIpSh2zD1OPhynxRLh6EOw0ebjwx8Ex4v4gUD+XWk6gn5qeZZNU0q2027lsuaWcSL9XWrxhXUqKM
GpUt3NclqoxGCJibFsNHOZ1E4yHCeHl0Qn5in8xLXyneLq0vl+WxueNvKtgkvr/Geq8lUDpk9Ljx
TmBHjvza9bnz48ZMjjryu0w83edL3yjoPlSGx02xu4bzT4zdrcxMzEJHEKKVZQKhj1ByOm0YzSnZ
I4Sy1faJwQx0AeKPX4MJ/OLyloPo6D5m0e0WwTX7czXFkoCqr8UkDKooNxLQ022r3zJ0MZSMoS34
C4naWSMYwyR2ExdfL9aT+TfJXlz9B6l5n8yJLcadYOltb6fbt6bz3EgrRn6qqg12/hQ254y4xjh9
R3vuDTpssDjlln9MdqHUovV/KXk3XPKV75h8s2E2kXekSRLqOmSStcxmKduKSRyP8deXWvYHIxhO
GQQnvxcj7mc82PJhlkx3Ewqxz5p35u/JrRLXVdKutFUy6Wbi0ttbsubM8DTlCH5H4uEiv17H8MfB
nMgRLnRI86crU6cRlEw3jcRId1/rYL578q2Gleb9V07T4zHZW05SBCSxC0B+01Scz9NjM8YkerrN
ZqBjyyiOQL2byB5+1bWfLPme9vNO09JtBslmsRFC4V2EUzfveUjEisK/ZI75rNVohjnCIJ9Z/V+t
2+i7SOXHkkRH93G/sP6ks/K3WLvzd521fUNStLSCdtJ+rJHbxlIgBKCGo7SGvxbmuT12mGHGKv6m
HZutOoyysD6f0or8vPyov/Klt5guNRuLC8W5sHjiW2dpWVlDGp5xpTKdRqI5DERBG/VyNLpp4xIy
MT6en9iP8hafriflFoQ0D9Gxah60/qy6mrGMxfWJ6gFAzc+XGntXBqYxGeQlxVty9wTpJzlpoyhw
3v8AV7y8y/N5fMtxrFnZa+dOkntYTJFJpasIyszbhi4BLD0/DNjosEDEmN/F1HaOryRmIz4br+Fm
35IaZqS+QNbGkQ2z6v8AXB9UN2vKKvpx15U3pxrmH2hCMcsRK+GujsOysksmGRjXFfX4KXm7QvOu
s6v5c8tebk0yKw1K9MwfTVZJKWyUkUs3SqTbe+HD4QhOcOL0jr5rnOY5IY8nCBM9PL+1d5k/M5/K
fmKby3omhWMegWDLDcWzRkPNQAsaqeI67FlbxPhk8HZ3iwEzI8RatV2uMOU44xHDFMLbyVoGk/nP
ot7pVqkFjqtlPctZcQEjf0nB4p0UHY8exrmPxSlp5Xziacuox1UAOU4k0n+mReY7+/1q0856Hp0P
lJFm9G6dURigeiVo77envyopB75VOMAI+HImfc3Y55DKQyxiMYvdh35K+bLy41O18pNY2Z0i2hna
G4aJvrRAYuvNi7J+1/LmZ2ho+CJyWb+x1/ZfaJyTGKhVH3sN89+bNV8z6zbWd5Z2dvDpl5IsDWsb
xswMgX94WdwdkHQDMvBoRCNi9w4Op7UM58JAFHo+p85l7F2KuxV2KvmWX8zdL8p/mF57jv4Zp/r8
lzaw+jx+F+bbtyK7b9s3BueOAv6XRRj4eXIa+u3k36c/ys2P5p1P8nvV4fzt8i69pdpB580Oe/1G
wQJFf2knFpQB/uz95CRy/a3I7gDNaIzxk+FKgejtpGGWIGaHER1Y/wCdvznm1q70xNGtxo+laIyv
pdshBZZEpxkYgUqOOw7e+XYIiAPEeIy5tOp4shjwjhjDkyeb87Pyv1wwal5q8szT69AiqXtnHoSF
OnMGSP4fZlanTcZRGOSA4YTqLkT8LKRLJC5pN5b/ADt0rSfNer3v6GSLy7rS+ndaRA32FAIDLyoh
PxNVaAfFtTLMsTOERxeqPVqwHw8kiI+ifMI3Xvzn8j2fljUNC8j6NPp41aq3lzdMKhCKMFX1Jyaq
Sv2gBkYCcpiWSV8PJlPgjjlDFHh4uf43Q/lz80vysi0zTotc8tTLqWmAele6fKVaVweXOQ+pC1S3
iWp2oNsnkllJPDPY9CwxYsIjHix+qPUJhpn/ADkHpP8AjrU/MGqafN9Ru7IWNtaQMjOqK4arsxjG
/wAR26VplUsP7sQB5G2+Gb98ckhzjSUa956/JefR7uHRvLl7aao6EWlzLPIyI9erKbhwf+BOX482
cSHFOx+PJxcul05iRGBEvef1p7cfnT+VepaXpEGuaBeX93pNtHBExkCR8lRQ2ySqGVin7SnKIxyx
MjGVcRcmfgzjETgZGIYR5/8AzYuvN2pQzGFLHT7NDFYWMZqsaE7kmgqxoBsANhtmVpiMQNGyeZcP
WQlnkLFAcgu8n/mVpem6ff6Fr1m+oaDqRSSVIXEc8M0f2ZYmO1fEH+oLmmZSE4mpBGnwiMTCQuEk
Vrv5k+V4PLU3lvylZ3UFleypNqV9qDxtczekeUcfGIcFVW32/wBuMJyMxOZ3HKmU8MRjOPGCBLmT
zNJl/wAr0jtfzBPmGwhkOlXENvb39hNxrJHFGqNsCy8gV5If6nK/DBxcB5i6LeJyGbxANiACGJec
/O9rrnmjUtWtVeK3vJjJFHJTmoIAo3EkdsysGbggI9zhanS+JkM65pz5G/NLS/L/AJe81abeQzTT
67aC2tHi48Y39KZKyciDSsw6VynUSOScJX9J/U36XH4UJxr6xX3/AK3flh+aWl+U9R1G51CGa4S7
tGto1g41DsytU8iu22OrkcoAvkV0OPwJE1zFO/Lf80tL8r/pn6/DNP8ApG0NtD6PH4XNd25Fdt+2
OqkcvDvyK6LH4PFt9QpP9A/N/wDLseQtM8r+Z9IvNR+oSyTkwuI0MjyyspDLLE+yTU3yqfieKckJ
Vf7P1N+OOPwY4pxMhH9v62Ked/N3kO9ltD5S0y40uNFcXa3EjSF2JHArykmpTfwzJwajIL45W4eo
0eKVeHHhRmhfmlpen/l1rnlmaGZ77U5lkgnTj6ShfT2apDf7rPQZXkkZZYzv6W3Fj4cEsdfV+xiu
mebrvTdQttQs5fTurWRZoX60ZDUVHceIzJnqBIEHkXEx6MwkJDmHqtx+dP5VaxcR6z5g8rTya/GF
5mCQG3kZBRS9XjqNv2kbbbfNdEZYDhjP0u1n4OSXHPHc0osfz3E35kwebNXt3+pW8Ulvb2FsQxjj
ZGVQC5QMeTVY/wC1kzjAw+HE82sTkc4yyHIVSrov556eT5h03zLDdan5e1mSWS2i5hp4C71UKXag
AWh2Pwsop3xnj+mUKEophM1OMwZQl9iQflx+ZGleVPNo1a6Sa5skjliRIwglIfZSQW4j33y/VTOW
HDbjaLCMOTjpIm8yR3evm4jJVLi79RFbqA8lQDT55cNTUa8nHOiud11fcecy9e7FXYq7FUDNoGhT
StLNp1rJK5LPI8MbMxPUklanDZRwhZ/hry7/ANWqz/6R4v8AmnHiK8Id/hry7/1arP8A6R4v+ace
Irwh3+GvLv8A1arP/pHi/wCaceIrwh3+GvLv/Vqs/wDpHi/5px4ivCHf4a8u/wDVqs/+keL/AJpx
4ivCHf4a8u/9Wqz/AOkeL/mnHiK8Id/hry7/ANWqz/6R4v8AmnHiK8Id/hry7/1arP8A6R4v+ace
Irwh3+GvLv8A1arP/pHi/wCaceIrwh3+GvLv/Vqs/wDpHi/5px4ivCHf4a8u/wDVqs/+keL/AJpx
4ivCHf4a8u/9Wqz/AOkeL/mnHiK8Id/hry7/ANWqz/6R4v8AmnHiK8Id/hry7/1arP8A6R4v+ace
Irwh3+GvLv8A1arP/pHi/wCaceIrwh3+GvLv/Vqs/wDpHi/5px4ivCHf4a8u/wDVqs/+keL/AJpx
4ivCHf4a8u/9Wqz/AOkeL/mnHiK8Id/hry7/ANWqz/6R4v8AmnHiK8Id/hry7/1arP8A6R4v+ace
Irwh3+GvLv8A1arP/pHi/wCaceIrwh3+GvLv/Vqs/wDpHi/5px4ivCHf4a8u/wDVqs/+keL/AJpx
4ivCHf4a8u/9Wqz/AOkeL/mnHiK8Id/hry7/ANWqz/6R4v8AmnHiK8Id/hry7/1arP8A6R4v+ace
Irwhw8ueXgQRpdoCNwRBF/zTjxFeEJjgS7FXYq7FXYq7FXYq7FXYq7FXYq7FXYq7FXYq7FXYq7FX
Yq7FXYq7FXYq7FXYq7FXYq7FXYq7FXYq7FXYq7FXYq7FXYq7FXYq7FXYq7FXYq7FXYq7FXYq7FXY
q7FXYq7FXYq7FXYq7FXYq7FXYq7FXYq7FXYq7FXYq7FXYq7FXYq7FXYq7FXYq7FXYq7FXYq7FXYq
7FXYq7FXYq7FXYq7FXYq7FXYq7FXYq7FXYq7FXYq7FXYq7FXYq7FXYq7FXYq7FXYq7FXYq7FXYq7
FXYq7FXYq7FXYq7FXYq7FXYq7FXYq7FXYq7FXYq7FXYq7FXYq7FX/9k=
								</xmpGImg:image>
						</rdf:li>
					</rdf:Alt>
				</xmp:Thumbnails>
				<xmpTPg:MaxPageSize  rdf:parseType="Resource">
					<stDim:w>696.000000</stDim:w>
					<stDim:h>349.899994</stDim:h>
					<stDim:unit>Pixels</stDim:unit>
				</xmpTPg:MaxPageSize>
				<xmpTPg:NPages>1</xmpTPg:NPages>
				<xmpTPg:HasVisibleTransparency>True</xmpTPg:HasVisibleTransparency>
				<xmpTPg:HasVisibleOverprint>False</xmpTPg:HasVisibleOverprint>
				<xmpTPg:PlateNames>
					<rdf:Seq>
						<rdf:li>Cyan</rdf:li>
						<rdf:li>Magenta</rdf:li>
						<rdf:li>Yellow</rdf:li>
						<rdf:li>Black</rdf:li>
					</rdf:Seq>
				</xmpTPg:PlateNames>
				<xmpTPg:SwatchGroups>
					<rdf:Seq>
						<rdf:li  rdf:parseType="Resource">
							<xmpG:groupName>Default Swatch Group</xmpG:groupName>
							<xmpG:groupType>0</xmpG:groupType>
						</rdf:li>
					</rdf:Seq>
				</xmpTPg:SwatchGroups>
				<dc:format>image/svg+xml</dc:format>
			</rdf:Description>
		</rdf:RDF>
	</x:xmpmeta>
	<sfw  xmlns="&ns_sfw;">
		<slices></slices>
		<sliceSourceBounds  bottomLeftOrigin="true" height="444.4" width="779.8" x="-43.8" y="-97.1"></sliceSourceBounds>
	</sfw>
</metadata>
<rect x="19.9" y="25.5" class="st0" width="661.3" height="276.5"/>
<linearGradient id="SVGID_1_" gradientUnits="userSpaceOnUse" x1="351.6" y1="434.5145" x2="351.6" y2="703.6968" gradientTransform="matrix(1 0 0 1 0 -416)">
	<stop  offset="0" style="stop-color:#19314A"/>
	<stop  offset="0.543" style="stop-color:#0086C5"/>
	<stop  offset="1" style="stop-color:#152C42"/>
</linearGradient>
<rect x="28" y="39.3" class="st1" width="647.2" height="243.2"/>
<rect x="26.1" y="36.8" class="st2" width="647.2" height="243.2"/>
<path class="st3" d="M675,282.9H26.3V37H675V282.9z M28.7,280.5h643.9V39.4H28.7V280.5z"/>
<g>
	
		<linearGradient id="SVGID_00000065064178127355226190000018298926881626776231_" gradientUnits="userSpaceOnUse" x1="84.7" y1="651.3749" x2="84.7" y2="367.0784" gradientTransform="matrix(1 0 0 1 0 -416)">
		<stop  offset="1.043656e-02" style="stop-color:#616161"/>
		<stop  offset="0.2419" style="stop-color:#B7B9BB"/>
		<stop  offset="0.371" style="stop-color:#F7F7F8"/>
		<stop  offset="0.9386" style="stop-color:#C9C9C9"/>
	</linearGradient>
	<path style="fill:url(#SVGID_00000065064178127355226190000018298926881626776231_);" d="M45.4,43.9H124v16.8H63.8v29.2h53.4v16.8
		H63.8v43.1H45.4V43.9z"/>
	
		<linearGradient id="SVGID_00000112603078229801247960000006040743218391190935_" gradientUnits="userSpaceOnUse" x1="180.05" y1="651.3749" x2="180.05" y2="367.0784" gradientTransform="matrix(1 0 0 1 0 -416)">
		<stop  offset="1.043656e-02" style="stop-color:#616161"/>
		<stop  offset="0.2419" style="stop-color:#B7B9BB"/>
		<stop  offset="0.371" style="stop-color:#F7F7F8"/>
		<stop  offset="0.9386" style="stop-color:#C9C9C9"/>
	</linearGradient>
	<path style="fill:url(#SVGID_00000112603078229801247960000006040743218391190935_);" d="M179.9,151.6c-8.2,0-15.6-1.4-22.4-4.3
		c-6.8-2.9-12.5-6.8-17.4-11.7c-4.8-4.9-8.6-10.7-11.3-17.3c-2.7-6.6-4.1-13.6-4.1-21.1v-0.3c0-7.5,1.4-14.5,4.1-21.1
		s6.5-12.4,11.5-17.4c4.9-5,10.8-8.9,17.5-11.9c6.8-2.9,14.2-4.4,22.4-4.4s15.6,1.4,22.4,4.3c6.7,2.9,12.5,6.8,17.4,11.7
		c4.8,4.9,8.6,10.7,11.3,17.3s4.1,13.6,4.1,21.1v0.3c0,7.5-1.4,14.5-4.1,21.1c-2.7,6.6-6.6,12.4-11.5,17.4s-10.8,8.9-17.5,11.9
		C195.5,150.1,188,151.6,179.9,151.6z M180.2,134.5c5.2,0,10-1,14.4-2.9c4.4-2,8.1-4.6,11.2-8c3.1-3.4,5.5-7.3,7.3-11.9
		c1.8-4.5,2.6-9.4,2.6-14.5v-0.3c0-5.1-0.9-10-2.6-14.6s-4.2-8.6-7.4-11.9c-3.2-3.4-6.9-6.1-11.4-8.1c-4.4-2-9.2-3-14.4-3
		s-10,1-14.4,2.9c-4.4,2-8.1,4.6-11.2,8c-3.1,3.4-5.5,7.3-7.3,11.9c-1.8,4.5-2.6,9.4-2.6,14.5v0.3c0,5.1,0.9,10,2.6,14.6
		c1.8,4.6,4.2,8.6,7.4,11.9c3.2,3.4,7,6.1,11.4,8.1C170.2,133.5,175,134.5,180.2,134.5z"/>
	
		<linearGradient id="SVGID_00000054968374069657681620000015619727800836800182_" gradientUnits="userSpaceOnUse" x1="287.75" y1="651.3749" x2="287.75" y2="367.0784" gradientTransform="matrix(1 0 0 1 0 -416)">
		<stop  offset="1.043656e-02" style="stop-color:#616161"/>
		<stop  offset="0.2419" style="stop-color:#B7B9BB"/>
		<stop  offset="0.371" style="stop-color:#F7F7F8"/>
		<stop  offset="0.9386" style="stop-color:#C9C9C9"/>
	</linearGradient>
	<path style="fill:url(#SVGID_00000054968374069657681620000015619727800836800182_);" d="M242.8,43.9H290c6.7,0,12.5,0.9,17.7,2.8
		c5.1,1.9,9.4,4.5,12.8,7.8c2.8,2.9,5,6.3,6.5,10.1c1.5,3.8,2.3,8.1,2.3,12.7v0.3c0,4.3-0.6,8.2-1.9,11.7s-3,6.6-5.2,9.2
		c-2.2,2.7-4.9,4.9-7.9,6.8c-3.1,1.9-6.5,3.3-10.2,4.3l28.6,40.1h-21.9l-26.1-36.9h-0.3h-23v36.9H243V43.9H242.8z M288.5,96.4
		c6.7,0,12-1.6,15.9-4.8c3.9-3.2,5.9-7.5,5.9-13v-0.3c0-5.8-1.9-10.1-5.8-13.1c-3.8-3-9.3-4.5-16.2-4.5h-27.1v35.7
		C261.2,96.4,288.5,96.4,288.5,96.4z"/>
	
		<linearGradient id="SVGID_00000126306925983064291710000004513689200207676073_" gradientUnits="userSpaceOnUse" x1="375.35" y1="651.3749" x2="375.35" y2="367.0784" gradientTransform="matrix(1 0 0 1 0 -416)">
		<stop  offset="1.043656e-02" style="stop-color:#616161"/>
		<stop  offset="0.2419" style="stop-color:#B7B9BB"/>
		<stop  offset="0.371" style="stop-color:#F7F7F8"/>
		<stop  offset="0.9386" style="stop-color:#C9C9C9"/>
	</linearGradient>
	<path style="fill:url(#SVGID_00000126306925983064291710000004513689200207676073_);" d="M366,61.2h-33.6V43.9h85.9v17.2h-33.6
		v88.6H366V61.2z"/>
</g>
<linearGradient id="SVGID_00000147181059564047447820000014798384849383646391_" gradientUnits="userSpaceOnUse" x1="111.55" y1="754.8993" x2="111.55" y2="344.577" gradientTransform="matrix(1 0 0 1 0 -416)">
	<stop  offset="1.043656e-02" style="stop-color:#616161"/>
	<stop  offset="0.3925" style="stop-color:#FFFFFF"/>
	<stop  offset="0.9386" style="stop-color:#9A9A9A"/>
</linearGradient>
<path style="fill:url(#SVGID_00000147181059564047447820000014798384849383646391_);" d="M33.9,161.8h29.3l17.4,57.9l19.3-58.2h23.9
	l19.3,58.2l17.4-57.9h28.7l-33.4,100.7h-24.1l-20.2-57.6l-20,57.6H67.3L33.9,161.8z"/>
<linearGradient id="SVGID_00000098929394846102596370000014876633139655147679_" gradientUnits="userSpaceOnUse" x1="222.45" y1="754.8993" x2="222.45" y2="344.577" gradientTransform="matrix(1 0 0 1 0 -416)">
	<stop  offset="1.043656e-02" style="stop-color:#616161"/>
	<stop  offset="0.3925" style="stop-color:#FFFFFF"/>
	<stop  offset="0.9386" style="stop-color:#9A9A9A"/>
</linearGradient>
<path style="fill:url(#SVGID_00000098929394846102596370000014876633139655147679_);" d="M209.1,161h26.7l42.6,100.7h-29.7
	l-7.3-17.9h-38.6l-7.1,17.9h-29.2L209.1,161z M233.4,222.5L222.2,194l-11.3,28.4h22.5V222.5z"/>
<linearGradient id="SVGID_00000115502482139963144330000001215987790304819631_" gradientUnits="userSpaceOnUse" x1="302.35" y1="754.8993" x2="302.35" y2="344.577" gradientTransform="matrix(1 0 0 1 0 -416)">
	<stop  offset="1.043656e-02" style="stop-color:#616161"/>
	<stop  offset="0.3925" style="stop-color:#FFFFFF"/>
	<stop  offset="0.9386" style="stop-color:#9A9A9A"/>
</linearGradient>
<path style="fill:url(#SVGID_00000115502482139963144330000001215987790304819631_);" d="M288.4,224.3l-38-62.6H282l20.6,36.4
	l20.7-36.4h31l-38,62.2v37.9h-27.9L288.4,224.3L288.4,224.3z"/>
<linearGradient id="SVGID_00000103958113481425048520000003021436127011175301_" gradientUnits="userSpaceOnUse" x1="407.2" y1="754.8993" x2="407.2" y2="344.577" gradientTransform="matrix(1 0 0 1 0 -416)">
	<stop  offset="1.043656e-02" style="stop-color:#616161"/>
	<stop  offset="0.3925" style="stop-color:#FFFFFF"/>
	<stop  offset="0.9386" style="stop-color:#9A9A9A"/>
</linearGradient>
<path style="fill:url(#SVGID_00000103958113481425048520000003021436127011175301_);" d="M360,161.8h25.9l41.2,52.9v-52.9h27.3v100
	h-24.3l-42.8-54.9v54.9H360V161.8z"/>
<linearGradient id="SVGID_00000168105127985267103870000005603197596186109826_" gradientUnits="userSpaceOnUse" x1="504.1" y1="754.8993" x2="504.1" y2="344.577" gradientTransform="matrix(1 0 0 1 0 -416)">
	<stop  offset="1.043656e-02" style="stop-color:#616161"/>
	<stop  offset="0.3925" style="stop-color:#FFFFFF"/>
	<stop  offset="0.9386" style="stop-color:#9A9A9A"/>
</linearGradient>
<path style="fill:url(#SVGID_00000168105127985267103870000005603197596186109826_);" d="M463.6,161.8h80.3v23.6h-53v15.1h48v21.9
	h-48v15.9h53.7v23.6h-81L463.6,161.8L463.6,161.8z"/>
<linearGradient id="SVGID_00000015317867159664940960000003534542250624321705_" gradientUnits="userSpaceOnUse" x1="558.7576" y1="721.744" x2="558.7576" y2="388.9943" gradientTransform="matrix(1 0 0 1 0 -416)">
	<stop  offset="1.043656e-02" style="stop-color:#616161"/>
	<stop  offset="0.3925" style="stop-color:#FFFFFF"/>
	<stop  offset="0.9386" style="stop-color:#9A9A9A"/>
</linearGradient>
<path style="fill:url(#SVGID_00000015317867159664940960000003534542250624321705_);stroke:#FFFFFF;stroke-width:0.5;stroke-miterlimit:10;" d="
	M547.9,190.6c3.6-0.4,5.5,0,7.2-1.9c1.6-1.9,1.9-5.5,1.7-8.4h-8.2v-18.7h21v16.9c0.1,5.6-0.3,7.5-1.1,10.1c-1,3.1-2.9,6.2-4.4,7.3
	c-2,1.5-4.3,2.6-7.2,3.4c-2.7,0.7-5.7,0.7-9,0.8V190.6z"/>
<linearGradient id="SVGID_00000147934533468384558450000006270317369805996217_" gradientUnits="userSpaceOnUse" x1="614.0499" y1="755.8536" x2="614.0499" y2="345.5313" gradientTransform="matrix(1 0 0 1 0 -416)">
	<stop  offset="1.043656e-02" style="stop-color:#616161"/>
	<stop  offset="0.3925" style="stop-color:#FFFFFF"/>
	<stop  offset="0.9386" style="stop-color:#9A9A9A"/>
</linearGradient>
<path style="fill:url(#SVGID_00000147934533468384558450000006270317369805996217_);" d="M617.3,264.5c-9,0-17.5-1.4-25.5-4.2
	c-8.1-2.8-15.2-6.9-21.4-12.5l15.4-18.5c10,8,20.8,12,32.4,12c3.7,0,6.5-0.6,8.5-1.8s2.9-2.9,2.9-5.1v-0.3c0-1-0.2-2-0.7-2.8
	s-1.4-1.6-2.6-2.4c-1.3-0.8-3-1.5-5.1-2.2s-4.9-1.5-8.4-2.2c-5.3-1.2-10.3-2.6-14.9-4.1c-4.6-1.5-8.6-3.4-11.9-5.7
	c-3.4-2.3-6-5.2-8-8.7s-2.9-7.8-2.9-12.9v-0.3c0-4.7,0.9-8.9,2.6-12.8c1.8-3.9,4.3-7.3,7.7-10.1c3.4-2.9,7.5-5.1,12.2-6.6
	c4.8-1.6,10.1-2.4,16.1-2.4c8.6,0,16.2,1.1,22.9,3.4c6.7,2.3,12.8,5.6,18.2,10L641.1,194c-4.6-3.2-9.3-5.7-14.1-7.4
	s-9.5-2.5-13.9-2.5c-3.3,0-5.8,0.6-7.5,1.9c-1.7,1.2-2.5,2.8-2.5,4.6v0.3c0,1.1,0.3,2.1,0.8,3s1.4,1.6,2.7,2.4
	c1.3,0.7,3,1.4,5.3,2.1c2.2,0.7,5.1,1.5,8.5,2.2c5.7,1.2,10.9,2.7,15.5,4.3c4.6,1.7,8.6,3.7,11.8,6.1c3.2,2.4,5.7,5.3,7.4,8.6
	c1.7,3.4,2.6,7.4,2.6,12.1v0.3c0,5.1-1,9.7-2.9,13.7c-2,4-4.7,7.4-8.2,10.2c-3.5,2.8-7.8,4.9-12.7,6.4
	C628.9,263.7,623.4,264.5,617.3,264.5z"/>
<path class="st0" d="M64.9,151.2H44.1V43h81v19.2H64.9V89h53.4v19.2H64.9V151.2z M46.5,148.9h16.1v-43.1H116V91.4H62.5V59.8h60.2
	V45.4H46.5V148.9z"/>
<path class="st0" d="M179.8,153.1c-8.3,0-16-1.5-22.8-4.4c-6.9-2.9-12.8-7-17.8-12c-4.9-5-8.8-11-11.6-17.7
	c-2.8-6.7-4.2-14-4.2-21.5v-0.3c0-7.6,1.4-14.8,4.2-21.5s6.7-12.7,11.7-17.8s11-9.2,17.9-12.1c6.9-3,14.6-4.5,22.8-4.5
	c8.3,0,16,1.5,22.8,4.4c6.9,2.9,12.8,7,17.8,12c4.9,5,8.8,11,11.6,17.7s4.2,14,4.2,21.5v0.3c0,7.6-1.4,14.8-4.2,21.5
	s-6.7,12.7-11.7,17.8s-11.1,9.2-17.9,12.1C195.8,151.5,188.1,153.1,179.8,153.1z M180.1,43.6c-8,0-15.3,1.4-21.9,4.3
	c-6.6,2.8-12.4,6.8-17.2,11.6c-4.8,4.9-8.6,10.6-11.2,17c-2.6,6.4-4,13.4-4,20.6v0.3c0,7.3,1.3,14.2,4,20.6s6.4,12.1,11.1,16.9
	c4.7,4.8,10.4,8.7,17,11.5s13.9,4.2,21.9,4.2s15.3-1.4,21.9-4.3c6.6-2.8,12.3-6.8,17.2-11.6c4.8-4.9,8.6-10.6,11.2-17
	c2.6-6.4,4-13.4,4-20.6v-0.3c0-7.3-1.3-14.2-4-20.6s-6.4-12.1-11.1-16.9c-4.7-4.8-10.4-8.7-17-11.5C195.4,45,188.1,43.6,180.1,43.6z
	 M180.1,136c-5.4,0-10.4-1.1-14.9-3.1c-4.5-2.1-8.5-4.9-11.7-8.4s-5.8-7.6-7.6-12.3c-1.8-4.7-2.7-9.7-2.7-15v-0.3
	c0-5.3,0.9-10.3,2.7-14.9s4.3-8.8,7.5-12.2c3.2-3.5,7.1-6.3,11.6-8.3s9.5-3.1,14.9-3.1s10.4,1.1,14.9,3.1c4.5,2.1,8.5,4.9,11.7,8.4
	c3.3,3.5,5.8,7.6,7.6,12.3c1.8,4.7,2.7,9.8,2.7,15v0.3c0,5.3-0.9,10.3-2.7,14.9c-1.8,4.7-4.3,8.8-7.5,12.2
	c-3.2,3.5-7.1,6.3-11.6,8.3S185.5,136,180.1,136z M179.8,60.7c-5,0-9.7,1-13.9,2.8c-4.2,1.9-7.8,4.5-10.8,7.7
	c-3,3.3-5.4,7.1-7.1,11.5c-1.7,4.4-2.6,9.1-2.6,14.1v0.3c0,5,0.9,9.7,2.6,14.2c1.7,4.4,4.1,8.3,7.1,11.6c3,3.2,6.7,5.9,11,7.8
	c4.2,1.9,8.9,2.9,14,2.9c5,0,9.7-1,13.9-2.8c4.2-1.9,7.8-4.5,10.8-7.7s5.4-7.1,7.1-11.5c1.7-4.4,2.6-9.1,2.6-14.1v-0.3
	c0-5-0.9-9.7-2.6-14.2c-1.7-4.4-4.1-8.3-7.1-11.6c-3-3.2-6.7-5.9-11-7.8C189.5,61.7,184.8,60.7,179.8,60.7z"/>
<path class="st0" d="M334.8,151.2h-24.9l-26.1-36.9h-21.5v36.9h-20.8V43h48.4c6.8,0,12.8,1,18.1,2.9c5.3,1.9,9.7,4.6,13.3,8
	c3,3.1,5.2,6.6,6.8,10.5c1.6,4,2.4,8.4,2.4,13.1v0.3c0,4.4-0.7,8.5-2,12.1s-3.1,6.8-5.4,9.6c-2.3,2.8-5.1,5.1-8.2,7.1
	c-2.7,1.6-5.7,3-8.9,4L334.8,151.2z M311.2,148.9h19L302,109.3l1.7-0.4c3.6-1,6.9-2.4,9.9-4.2c2.9-1.8,5.5-4,7.6-6.5s3.8-5.5,5-8.9
	c1.2-3.3,1.8-7.1,1.8-11.3v-0.3c0-4.5-0.7-8.6-2.2-12.3c-1.4-3.7-3.5-6.9-6.3-9.7c-3.3-3.2-7.4-5.7-12.4-7.5s-10.8-2.7-17.3-2.7h-46
	v103.4h16.1V112h25.2L311.2,148.9z M288.4,97.9h-28.5V59.8h28.3c7.2,0,12.9,1.6,17,4.7c4.1,3.2,6.2,7.9,6.2,14.1v0.3
	c0,5.8-2.1,10.5-6.4,13.9C301,96.2,295.3,97.9,288.4,97.9z M262.3,95.5h26.1c6.4,0,11.5-1.5,15.2-4.5s5.5-6.9,5.5-12.1v-0.3
	c0-5.4-1.7-9.4-5.3-12.2c-3.6-2.8-8.8-4.2-15.5-4.2h-25.9v33.3H262.3z"/>
<path class="st0" d="M385.8,151.2h-21.1V62.7h-33.6V43h88.2v19.6h-33.6v88.6H385.8z M367.1,148.9h16.4V60.3H417V45.4h-83.5v14.8
	h33.6V148.9z"/>
<path class="st0" d="M156.6,264h-25.9l-19.3-55.2L92.3,264H66.4l-0.3-0.8l-34-102.3H64L80.6,216L99,160.6h25.6L143,216l16.6-55.1
	h31.3L156.6,264z M132.4,261.6h22.4l32.6-98.4h-26.2l-18.3,60.6L122.8,163h-22.1l-20.2,60.9l-18.3-60.6H35.5l32.6,98.4h22.4l20.9-60
	L132.4,261.6z"/>
<path class="st0" d="M280.1,263.3h-32.3l-7.3-17.9h-37l-7.1,17.9h-31.8l43.6-103.1h28.3l0.3,0.7L280.1,263.3z M249.4,260.9h27.1
	L235,162.5h-25.1l-41.6,98.4h26.5l7.1-17.9h40.2L249.4,260.9z M235.1,224h-25.9l13.1-32.9L235.1,224z M212.6,221.6h18.9l-9.4-24
	L212.6,221.6z"/>
<path class="st0" d="M317.4,263.3h-30.3V225l-38.9-64.1h34.4l19.9,35.2l20-35.2h33.8l-38.9,63.7V263.3z M289.5,260.9H315v-37
	l37.1-60.6h-28.2L302.5,201l-21.3-37.7h-28.8l37.1,61.1V260.9z"/>
<path class="st0" d="M455.6,263.3h-26.1l-41-52.6v52.6h-29.7V160.9h27.7l39.5,50.6v-50.6h29.7v102.4H455.6z M430.6,260.9h22.6v-97.6
	h-24.9v55.2l-43-55.2h-24.1v97.6H386v-57.1L430.6,260.9z"/>
<path class="st0" d="M545.7,263.3h-83.4V160.9H545v26h-53v12.8h48V224h-48v13.5h53.7V263.3z M464.7,260.9h78.6v-21.2h-53.7v-18.2h48
	V202h-48v-17.5h53v-21.2h-77.9L464.7,260.9L464.7,260.9z"/>
<path class="st0" d="M617.2,265.9c-9,0-17.8-1.4-25.9-4.2c-8.2-2.8-15.5-7.1-21.8-12.8l-0.9-0.8l16.9-20.3l0.9,0.7
	c9.7,7.8,20.4,11.7,31.7,11.7c3.5,0,6.1-0.5,7.9-1.6c1.6-1,2.4-2.3,2.4-4v-0.3c0-0.8-0.2-1.5-0.5-2.2c-0.4-0.6-1.1-1.3-2.2-1.9
	c-1.2-0.7-2.9-1.4-4.9-2.1c-2.1-0.7-4.9-1.4-8.2-2.2c-5.3-1.2-10.4-2.6-15-4.1c-4.7-1.5-8.8-3.5-12.2-5.9c-3.5-2.4-6.3-5.5-8.4-9.1
	c-2-3.6-3.1-8.2-3.1-13.5V193c0-4.8,0.9-9.3,2.8-13.3c1.8-4,4.5-7.6,8-10.5s7.7-5.2,12.6-6.9c4.9-1.6,10.4-2.4,16.5-2.4
	c8.7,0,16.5,1.2,23.3,3.4c6.8,2.3,13.1,5.7,18.6,10.2l0.9,0.7L641.4,196l-1-0.7c-4.5-3.2-9.1-5.6-13.8-7.2
	c-4.7-1.6-9.2-2.4-13.5-2.4c-3.1,0-5.3,0.5-6.8,1.6c-1.4,1-2,2.2-2,3.6v0.3c0,0.9,0.2,1.7,0.6,2.4c0.4,0.7,1.2,1.3,2.3,1.9
	c1.2,0.7,2.9,1.4,5.1,2c2.2,0.7,5,1.4,8.4,2.2c5.7,1.2,11,2.7,15.6,4.4c4.7,1.7,8.8,3.8,12.1,6.2c3.4,2.5,6,5.5,7.8,9.1
	c1.8,3.5,2.7,7.8,2.7,12.6v0.3c0,5.3-1,10.1-3.1,14.2c-2,4.1-4.9,7.7-8.5,10.6s-8,5.1-13.1,6.6C629.1,265.2,623.4,265.9,617.2,265.9
	z M572,247.9c5.8,5.1,12.6,8.9,20.1,11.5c7.9,2.7,16.3,4.1,25.1,4.1c6,0,11.4-0.7,16.2-2.2c4.8-1.4,8.9-3.5,12.3-6.2
	c3.4-2.7,6-6,7.9-9.8s2.8-8.2,2.8-13.2v-0.3c0-4.4-0.8-8.3-2.4-11.5s-4-6-7.1-8.2c-3.1-2.3-7-4.3-11.5-5.9
	c-4.6-1.6-9.7-3.1-15.3-4.3c-3.5-0.8-6.4-1.5-8.6-2.2c-2.3-0.7-4.2-1.5-5.5-2.2c-1.5-0.8-2.5-1.7-3.2-2.8c-0.6-1-1-2.3-1-3.6v-0.3
	c0-2.2,1-4.1,3-5.5c1.9-1.4,4.6-2.1,8.2-2.1c4.6,0,9.4,0.9,14.3,2.6c4.6,1.6,9.1,3.9,13.4,6.8l12.5-17.7c-5.1-4-10.8-7-17-9.1
	c-6.6-2.2-14.2-3.3-22.6-3.3c-5.8,0-11.1,0.8-15.8,2.3c-4.6,1.5-8.6,3.7-11.8,6.4s-5.7,6-7.4,9.7s-2.5,7.9-2.5,12.3v0.3
	c0,4.9,0.9,9,2.8,12.3c1.9,3.3,4.4,6.1,7.6,8.3c3.3,2.3,7.2,4.1,11.6,5.6c4.5,1.5,9.5,2.8,14.8,4c3.5,0.8,6.3,1.5,8.5,2.2
	s4,1.5,5.4,2.3c1.5,0.9,2.5,1.8,3.1,2.8s0.9,2.1,0.9,3.4v0.3c0,2.6-1.2,4.7-3.5,6.1c-2.1,1.3-5.2,2-9.1,2
	c-11.5,0-22.3-3.9-32.3-11.5L572,247.9z"/>
<rect x="-43.8" y="207.2" class="st15" width="779.8" height="239.8"/>
<rect x="5.6" y="285.1" class="st0" width="685.1" height="65.2"/>
<linearGradient id="SVGID_00000058589222808933249340000017132573403093146779_" gradientUnits="userSpaceOnUse" x1="348" y1="698.9791" x2="348" y2="764.5126" gradientTransform="matrix(1 0 0 1 0 -416)">
	<stop  offset="0" style="stop-color:#19314A"/>
	<stop  offset="0.543" style="stop-color:#0086C5"/>
	<stop  offset="1" style="stop-color:#152C42"/>
</linearGradient>
<rect x="9.5" y="288" style="fill:url(#SVGID_00000058589222808933249340000017132573403093146779_);" width="677" height="59.2"/>
<g>
	<path class="st0" d="M19.3,298.3H48v7.5H27.6v8.1h18v7.5h-18V336h-8.3V298.3z"/>
	<path class="st0" d="M72.9,336.6c-2.9,0-5.6-0.5-8-1.5s-4.5-2.4-6.3-4.1s-3.2-3.8-4.1-6.1c-1-2.3-1.5-4.9-1.5-7.6v-0.1
		c0-2.7,0.5-5.2,1.5-7.6c1-2.3,2.4-4.4,4.2-6.2c1.8-1.8,3.9-3.2,6.3-4.2c2.5-1,5.1-1.5,8-1.5s5.6,0.5,8,1.5s4.5,2.4,6.3,4.1
		s3.2,3.8,4.1,6.1c1,2.3,1.5,4.9,1.5,7.6v0.1c0,2.7-0.5,5.2-1.5,7.6c-1,2.3-2.4,4.4-4.2,6.2c-1.8,1.8-3.9,3.2-6.3,4.2
		C78.5,336.1,75.8,336.6,72.9,336.6z M73,329c1.6,0,3.2-0.3,4.6-0.9s2.6-1.5,3.6-2.5c1-1.1,1.8-2.3,2.3-3.7c0.6-1.4,0.8-2.9,0.8-4.5
		v-0.1c0-1.6-0.3-3.1-0.8-4.6c-0.6-1.4-1.3-2.7-2.4-3.8c-1-1.1-2.2-1.9-3.6-2.6c-1.4-0.6-2.9-0.9-4.6-0.9s-3.2,0.3-4.6,0.9
		s-2.6,1.5-3.5,2.5c-1,1.1-1.8,2.3-2.3,3.7c-0.6,1.4-0.8,2.9-0.8,4.5v0.1c0,1.6,0.3,3.1,0.8,4.6c0.6,1.4,1.3,2.7,2.4,3.8
		c1,1.1,2.2,1.9,3.6,2.6C69.8,328.7,71.3,329,73,329z"/>
	<path class="st0" d="M118,336.6c-2.8,0-5.3-0.5-7.7-1.5s-4.4-2.4-6.1-4.1s-3.1-3.8-4-6.2c-1-2.4-1.5-4.9-1.5-7.6v-0.1
		c0-2.7,0.5-5.2,1.5-7.6c1-2.3,2.3-4.4,4-6.2c1.7-1.8,3.8-3.2,6.2-4.2c2.4-1,5.1-1.5,8-1.5c1.8,0,3.4,0.1,4.8,0.4
		c1.5,0.3,2.8,0.7,4,1.2c1.2,0.5,2.3,1.1,3.3,1.8c1,0.7,1.9,1.5,2.8,2.4l-5.3,6.1c-1.5-1.3-3-2.4-4.5-3.1c-1.5-0.8-3.2-1.1-5.1-1.1
		c-1.6,0-3,0.3-4.4,0.9c-1.3,0.6-2.5,1.5-3.5,2.5c-1,1.1-1.7,2.3-2.3,3.7c-0.5,1.4-0.8,2.9-0.8,4.5v0.1c0,1.6,0.3,3.1,0.8,4.6
		c0.5,1.4,1.3,2.7,2.2,3.8c0.9,1.1,2.1,1.9,3.4,2.6c1.3,0.6,2.8,0.9,4.4,0.9c2.2,0,4-0.4,5.5-1.2c1.5-0.8,3-1.9,4.4-3.2l5.3,5.3
		c-1,1-2,2-3,2.8s-2.2,1.5-3.4,2.1c-1.2,0.6-2.6,1-4.1,1.3C121.4,336.5,119.8,336.6,118,336.6z"/>
	<path class="st0" d="M155.7,336.6c-5.1,0-9-1.4-11.9-4.2c-2.9-2.8-4.4-7-4.4-12.5v-21.5h8.3v21.3c0,3.1,0.7,5.4,2.2,7
		c1.4,1.6,3.4,2.3,6,2.3c2.5,0,4.5-0.8,6-2.3c1.4-1.5,2.2-3.8,2.2-6.8v-21.6h8.3v21.2c0,2.9-0.4,5.4-1.2,7.5s-1.9,3.9-3.3,5.3
		c-1.4,1.4-3.2,2.5-5.2,3.2C160.5,336.2,158.2,336.6,155.7,336.6z"/>
	<path class="st0" d="M194.1,336.5c-2.9,0-5.7-0.5-8.4-1.5c-2.8-1-5.3-2.5-7.5-4.5l4.9-5.9c1.7,1.4,3.5,2.5,5.3,3.3s3.8,1.2,5.9,1.2
		c1.7,0,3.1-0.3,4-0.9s1.4-1.5,1.4-2.6v-0.1c0-0.5-0.1-1-0.3-1.4s-0.6-0.8-1.1-1.2c-0.6-0.4-1.3-0.7-2.3-1.1s-2.3-0.7-3.9-1.1
		c-1.9-0.5-3.6-1-5.2-1.6c-1.5-0.6-2.9-1.3-3.9-2.1c-1.1-0.8-1.9-1.9-2.5-3.1c-0.6-1.3-0.9-2.8-0.9-4.7v-0.1c0-1.7,0.3-3.3,1-4.7
		c0.6-1.4,1.5-2.6,2.7-3.6s2.5-1.8,4.1-2.3s3.4-0.8,5.3-0.8c2.8,0,5.3,0.4,7.6,1.2c2.3,0.8,4.4,2,6.4,3.5l-4.3,6.2
		c-1.7-1.1-3.3-2.1-4.9-2.7c-1.6-0.7-3.2-1-4.8-1s-2.8,0.3-3.6,0.9s-1.2,1.4-1.2,2.3v0.1c0,0.6,0.1,1.1,0.4,1.6
		c0.2,0.4,0.7,0.9,1.3,1.2c0.6,0.4,1.4,0.7,2.5,1s2.4,0.7,4,1.1c1.9,0.5,3.6,1.1,5.1,1.7s2.7,1.4,3.8,2.3c1,0.9,1.8,1.9,2.3,3.1
		s0.8,2.6,0.8,4.2v0.1c0,1.9-0.3,3.5-1,5s-1.6,2.7-2.8,3.7s-2.7,1.7-4.3,2.3C198,336.3,196.2,336.5,194.1,336.5z"/>
	<path class="st0" d="M215.1,298.3h28.3v7.4h-20.2v7.6H241v7.4h-17.7v7.9h20.4v7.4h-28.6L215.1,298.3L215.1,298.3z"/>
	<path class="st0" d="M251.1,298.3h14.7c2.9,0,5.6,0.5,8.1,1.4c2.5,1,4.6,2.3,6.3,4s3.1,3.7,4.1,5.9c1,2.3,1.5,4.7,1.5,7.4v0.1
		c0,2.7-0.5,5.1-1.5,7.4s-2.3,4.3-4.1,6s-3.9,3-6.3,4c-2.5,1-5.2,1.5-8.1,1.5h-14.7L251.1,298.3L251.1,298.3z M265.8,328.5
		c1.7,0,3.2-0.3,4.6-0.8s2.6-1.3,3.6-2.3s1.8-2.2,2.3-3.5c0.6-1.4,0.8-2.9,0.8-4.6v-0.1c0-1.7-0.3-3.2-0.8-4.6
		c-0.6-1.4-1.3-2.6-2.3-3.6s-2.2-1.8-3.6-2.3c-1.4-0.6-2.9-0.8-4.6-0.8h-6.4v22.7h6.4V328.5z"/>
	<path class="st0" d="M323.8,336.5c-2.4,0-4.6-0.4-6.6-1.3s-3.7-2-5.2-3.5c-1.4-1.5-2.6-3.2-3.4-5.1c-0.8-2-1.2-4-1.2-6.3v-0.1
		c0-2.2,0.4-4.3,1.2-6.3c0.8-2,1.9-3.7,3.4-5.2s3.2-2.7,5.2-3.5c2-0.9,4.2-1.3,6.6-1.3s4.6,0.4,6.6,1.3s3.7,2,5.2,3.5
		c1.4,1.5,2.6,3.2,3.4,5.1c0.8,2,1.2,4,1.2,6.3v0.1c0,2.2-0.4,4.3-1.2,6.3c-0.8,2-1.9,3.7-3.4,5.2s-3.2,2.7-5.2,3.5
		C328.4,336.1,326.2,336.5,323.8,336.5z M323.9,331.5c1.5,0,3-0.3,4.3-0.9s2.4-1.4,3.3-2.4s1.6-2.2,2.2-3.5c0.5-1.3,0.8-2.8,0.8-4.3
		v-0.1c0-1.5-0.3-3-0.8-4.3c-0.5-1.4-1.2-2.5-2.2-3.5c-0.9-1-2.1-1.8-3.4-2.4s-2.7-0.9-4.3-0.9c-1.5,0-3,0.3-4.3,0.9
		s-2.4,1.4-3.3,2.4s-1.6,2.2-2.2,3.5c-0.5,1.3-0.8,2.8-0.8,4.3v0.1c0,1.5,0.3,3,0.8,4.3c0.5,1.4,1.2,2.5,2.2,3.5
		c0.9,1,2.1,1.8,3.4,2.4S322.4,331.5,323.9,331.5z"/>
	<path class="st0" d="M346.9,304.6h5.1l16.8,21.7v-21.7h5.5V336h-4.6l-17.3-22.3V336h-5.5V304.6z"/>
	<path class="st0" d="M407.7,306h-11.5v-7.6h31.2v7.6H416v30h-8.3V306z"/>
	<path class="st0" d="M433.8,298.3h8.3v14.9h15.3v-14.9h8.3V336h-8.3v-15.1h-15.3V336h-8.3V298.3z"/>
	<path class="st0" d="M474.7,298.3H503v7.4h-20.2v7.6h17.7v7.4h-17.7v7.9h20.4v7.4h-28.6v-37.7L474.7,298.3L474.7,298.3z"/>
	<path class="st0" d="M526.9,298.3h28.7v7.5h-20.4v8.1h18v7.5h-18V336h-8.3V298.3z"/>
	<path class="st0" d="M580.4,336.6c-2.9,0-5.6-0.5-8-1.5s-4.5-2.4-6.3-4.1s-3.2-3.8-4.1-6.1c-1-2.3-1.5-4.9-1.5-7.6v-0.1
		c0-2.7,0.5-5.2,1.5-7.6c1-2.3,2.4-4.4,4.2-6.2c1.8-1.8,3.9-3.2,6.3-4.2c2.5-1,5.1-1.5,8-1.5s5.6,0.5,8,1.5s4.5,2.4,6.3,4.1
		s3.2,3.8,4.1,6.1c1,2.3,1.5,4.9,1.5,7.6v0.1c0,2.7-0.5,5.2-1.5,7.6c-1,2.3-2.4,4.4-4.2,6.2c-1.8,1.8-3.9,3.2-6.3,4.2
		C586,336.1,583.3,336.6,580.4,336.6z M580.5,329c1.6,0,3.2-0.3,4.6-0.9c1.4-0.6,2.6-1.5,3.6-2.5c1-1.1,1.8-2.3,2.3-3.7
		c0.6-1.4,0.8-2.9,0.8-4.5v-0.1c0-1.6-0.3-3.1-0.8-4.6c-0.6-1.4-1.3-2.7-2.4-3.8c-1-1.1-2.2-1.9-3.6-2.6c-1.4-0.6-2.9-0.9-4.6-0.9
		c-1.7,0-3.2,0.3-4.6,0.9c-1.4,0.6-2.6,1.5-3.5,2.5c-1,1.1-1.8,2.3-2.3,3.7c-0.6,1.4-0.8,2.9-0.8,4.5v0.1c0,1.6,0.3,3.1,0.8,4.6
		c0.6,1.4,1.3,2.7,2.4,3.8c1,1.1,2.2,1.9,3.6,2.6C577.3,328.7,578.9,329,580.5,329z"/>
	<path class="st0" d="M607.9,298.3h17.2c4.8,0,8.4,1.3,11,3.8c2.2,2.2,3.2,5,3.2,8.6v0.1c0,3-0.7,5.5-2.2,7.4s-3.4,3.3-5.8,4.2
		l9.2,13.4h-9.7l-8.1-12h-0.1h-6.4v12h-8.3L607.9,298.3L607.9,298.3z M624.5,316.6c2,0,3.6-0.5,4.7-1.5c1.1-1,1.6-2.3,1.6-3.9v-0.1
		c0-1.8-0.6-3.1-1.7-4c-1.1-0.9-2.7-1.3-4.8-1.3h-8.2v10.8H624.5z"/>
	<path class="st0" d="M655.5,306H644v-7.6h31.2v7.6h-11.5v30h-8.3L655.5,306L655.5,306z"/>
</g>
<path class="st17" d="M684.2,121.3c-1.6-21.1-21.2-29.1-31.7-27.3c8.8-5,20.8-28.3,2.6-46.1c-13.9-13.7-32.3-8.6-38.8-2.6
	c3.5-11.3-2.1-35.1-25-38.2c-20.9-3-30,11.9-32.6,18.8c-4-9.8-13.5-20.6-31.4-18.8c-22.7,2.1-29.8,24.1-26.4,37
	c-9-6-24.9-9.2-37.9,2.9c-17.9,16.8-8.1,40.7,1.5,46.4c-10.6-1-27.4,6.1-30.8,24.7c-4.2,23,13.7,36.5,30.8,36.4h190
	C674.4,154.6,685.7,137.4,684.2,121.3z"/>
<g>
	<path class="st0" d="M683.3,117.3C681.6,96.2,662,88.1,651.5,90c8.8-5,20.8-28.3,2.6-46.1c-13.9-13.7-32.3-8.6-38.8-2.6
		c3.5-11.3-2.1-35.1-25-38.2c-20.9-3-30,11.9-32.6,18.8c-4-9.8-13.5-20.6-31.4-18.8c-22.7,2.1-29.8,24.1-26.4,37
		c-9-6-24.9-9.2-37.9,2.9c-17.9,16.8-8.1,40.7,1.5,46.4c-10.6-1-27.4,6.1-30.8,24.7c-4.2,23,13.7,36.5,30.8,36.4h190
		C673.5,150.5,684.8,133.4,683.3,117.3z M465.4,46.5c13.9-12.2,33.4-7.6,41.4,11.2l35.2,79.9l-72.2-49.3
		C451.8,75.9,455,55.3,465.4,46.5z M463.3,146c-17.1,0.1-30.6-15.6-25.3-34.6c6.4-16.7,24.5-23,39.6-12.6l67.8,47.3H463.3z
		 M554.9,38.6L542,128.1L505.9,43c-8.8-20.7,9.8-35.1,21.4-35.2C540.9,6.1,558,16.4,554.9,38.6z M651.3,47.7
		c9.1,9.6,12.3,28.4-4.7,39.9l-72.2,49.6l34.1-79C619.2,33.6,642.5,38.4,651.3,47.7z M571.4,37.1c-0.4-1.8-4-1.8-4.1-1.8h-6.8
		c-0.8-20.1,14.9-28.7,27.6-27.9C601.8,8.1,617.7,24,609.9,43L574,128.1l-11.5-76.9C560.7,39.4,568.8,39.2,571.4,37.1z M654.2,146
		h-83.4l67.8-47.3c16.3-11.4,34.4-0.9,38.8,13.5C682.6,128.5,671.3,146.1,654.2,146z"/>
	<path class="st18" d="M654.4,146.3H571l67.8-47.3c16.3-11.4,34.4-0.9,38.8,13.5C682.8,128.8,671.5,146.4,654.4,146.3L654.4,146.3z"
		/>
	<path class="st19" d="M646.7,87.9l-72.2,49.6l34.1-79c10.8-24.7,34.1-19.8,42.9-10.6C660.5,57.6,663.7,76.4,646.7,87.9L646.7,87.9z
		"/>
	<path class="st20" d="M610,43.3l-35.8,85.2l-11.5-76.9c-1.8-11.8,6.2-12,8.8-14.1c-0.4-1.8-4-1.8-4.1-1.8h-6.8
		c-0.8-20.1,14.9-28.7,27.6-27.9C602,8.4,617.9,24.3,610,43.3L610,43.3z"/>
	<path class="st21" d="M555.1,38.9l-12.9,89.6l-36.1-85.2c-8.8-20.7,9.8-35.1,21.4-35.2C541.1,6.4,558.2,16.7,555.1,38.9L555.1,38.9
		z"/>
	<path class="st22" d="M506.9,57.9l35.2,79.9l-72.3-49.3c-17.9-12.3-14.8-32.9-4.4-41.7C479.4,34.6,499,39.2,506.9,57.9L506.9,57.9z
		"/>
	<path class="st23" d="M438.2,111.7c6.4-16.7,24.5-23,39.7-12.6l67.8,47.3h-82.2C446.4,146.4,432.9,130.7,438.2,111.7L438.2,111.7z"
		/>
</g>
</svg>
